<?xml version="1.0" encoding="UTF-8"?>
<svg id="Layer_1" xmlns="http://www.w3.org/2000/svg" version="1.1" viewBox="0 0 1366 768">
  <!-- Generator: Adobe Illustrator 29.2.1, SVG Export Plug-In . SVG Version: 2.1.0 Build 116)  -->
  <defs>
    <style>
      .st0 {
        fill: #ac3e43;
      }

      .st1 {
        fill: #4a7588;
      }

      .st2 {
        fill: #7a3542;
      }

      .st3 {
        fill: #231f32;
      }
    </style>
  </defs>
  <path class="st3" d="M419.73,332.41c2.89,2.24,6.95,3.37,12.18,3.37,2.34,0,4.82-.37,7.43-1.12,2.61-.75,4.88-1.64,6.81-2.69.96,1.2,1.82,2.55,2.58,4.04.76,1.5,1.14,3.3,1.14,5.39,0,3.89-1.83,7.11-5.47,9.66-3.65,2.54-9.19,3.82-16.62,3.82-10.33,0-18.55-2.51-24.68-7.52-6.13-5.01-9.19-13.28-9.19-24.81v-104.86c.96-.3,2.34-.67,4.13-1.12,1.79-.45,3.72-.67,5.78-.67,3.99,0,6.92.83,8.78,2.47,1.86,1.65,2.79,4.42,2.79,8.31v22.23h32.01c.55.9,1.06,2.17,1.55,3.82.48,1.65.72,3.37.72,5.16,0,6.44-2.55,9.66-7.64,9.66h-26.64v53.44c0,5.39,1.45,9.21,4.34,11.45Z"/>
  <path class="st3" d="M531.55,275.05c-4.06-3.51-9.4-5.27-16-5.27-4.41,0-8.43.72-12.08,2.17-3.65,1.45-6.85,3.2-9.6,5.27v74.34c-.96.41-2.31.79-4.03,1.14-1.72.34-3.61.52-5.68.52-3.99,0-6.95-.76-8.88-2.27-1.93-1.51-2.89-4.06-2.89-7.64v-125.34c.96-.27,2.34-.62,4.13-1.03,1.79-.41,3.72-.62,5.78-.62,3.99,0,6.92.76,8.78,2.27,1.86,1.52,2.79,4.06,2.79,7.64v32.63c3.16-1.65,6.85-3.13,11.05-4.44,4.2-1.31,8.91-1.96,14.14-1.96,11.98,0,21.65,3.17,29.01,9.5,7.36,6.33,11.05,15.97,11.05,28.91v60.71c-.96.41-2.34.79-4.13,1.14-1.79.34-3.65.52-5.58.52-4.13,0-7.12-.76-8.98-2.27-1.86-1.51-2.79-4.06-2.79-7.64v-51.62c0-7.57-2.03-13.11-6.09-16.62Z"/>
  <path class="st3" d="M623.55,252.44c12.8,0,22.99,2.79,30.56,8.36s11.36,14.35,11.36,26.33v48.11c0,3.17-.72,5.61-2.17,7.33-1.45,1.72-3.41,3.34-5.88,4.85-3.58,2.07-8.19,3.86-13.84,5.37-5.65,1.51-12.18,2.27-19.62,2.27-13.36,0-23.78-2.62-31.28-7.85-7.5-5.23-11.25-12.94-11.25-23.13,0-9.09,2.92-16.03,8.78-20.86,5.85-4.82,14.28-7.78,25.3-8.88l28.7-2.89v-4.54c0-6.06-1.96-10.46-5.88-13.22-3.92-2.75-9.4-4.13-16.42-4.13-5.51,0-10.81.76-15.9,2.27-5.09,1.52-9.64,3.24-13.63,5.16-1.38-1.1-2.55-2.44-3.51-4.03-.96-1.58-1.45-3.34-1.45-5.27,0-2.34.58-4.27,1.75-5.78,1.17-1.51,2.99-2.82,5.47-3.92,3.85-1.93,8.26-3.34,13.22-4.23,4.96-.89,10.19-1.34,15.7-1.34ZM623.96,338.14c4.82,0,9.02-.48,12.6-1.45,3.58-.96,6.13-1.99,7.64-3.1v-26.22l-22.51,2.27c-6.34.69-11.09,2.1-14.25,4.23-3.17,2.14-4.75,5.41-4.75,9.81s1.72,8.09,5.16,10.63c3.44,2.55,8.81,3.82,16.11,3.82Z"/>
  <path class="st3" d="M711,352.69c-1.73.34-3.62.52-5.68.52-3.99,0-6.95-.76-8.88-2.27-1.93-1.51-2.89-4.06-2.89-7.64v-125.34c.96-.27,2.34-.62,4.13-1.03,1.79-.41,3.72-.62,5.78-.62,3.99,0,6.92.76,8.78,2.27,1.86,1.52,2.78,4.06,2.78,7.64v69.18l42.54-41.92c4.41.14,7.88,1.17,10.43,3.1,2.55,1.93,3.82,4.41,3.82,7.43,0,2.48-.82,4.68-2.48,6.61-1.65,1.93-4.07,4.27-7.23,7.02l-27.46,24.16,42.54,38.82c-.41,3.99-1.62,7.12-3.62,9.4s-4.78,3.41-8.36,3.41c-2.76,0-5.2-.69-7.33-2.06-2.14-1.38-4.44-3.44-6.92-6.2l-35.93-38v44.4c-.96.41-2.3.79-4.02,1.14Z"/>
  <path class="st3" d="M796.18,225.6c0-3.58,1.24-6.57,3.72-8.98,2.48-2.41,5.64-3.61,9.5-3.61s6.95,1.21,9.29,3.61c2.34,2.41,3.51,5.4,3.51,8.98s-1.17,6.57-3.51,8.98c-2.34,2.41-5.44,3.61-9.29,3.61s-7.02-1.2-9.5-3.61c-2.48-2.41-3.72-5.4-3.72-8.98ZM820.13,351.56c-.97.41-2.31.79-4.03,1.14-1.72.34-3.69.52-5.88.52-4,0-6.95-.76-8.88-2.27-1.93-1.51-2.89-4.06-2.89-7.64v-87.35c1.1-.27,2.51-.62,4.23-1.03,1.72-.41,3.68-.62,5.88-.62,3.99,0,6.92.76,8.77,2.27,1.86,1.52,2.79,4.13,2.79,7.85v87.14Z"/>
  <path class="st3" d="M477.71,363.36c1.92-.34,3.92-.52,5.99-.52,3.99,0,6.99.76,8.98,2.27,1.99,1.52,2.99,4.2,2.99,8.05v116.05c-1.1.41-2.58.79-4.44,1.14-1.86.34-3.82.52-5.88.52-4.27,0-7.33-.79-9.19-2.38-1.86-1.58-2.79-4.23-2.79-7.95v-45.22h-57.61v53.9c-1.1.41-2.55.79-4.34,1.14-1.79.34-3.79.52-5.99.52-4.27,0-7.33-.79-9.19-2.38s-2.79-4.23-2.79-7.95v-116.26c1.1-.27,2.58-.58,4.44-.93,1.86-.34,3.82-.52,5.88-.52,3.99,0,6.99.76,8.98,2.27,1.99,1.52,2.99,4.2,2.99,8.05v44.19h57.61v-53.07c.96-.27,2.41-.58,4.34-.93Z"/>
  <path class="st3" d="M619.58,441.32c0,7.85-1.17,14.94-3.51,21.27-2.34,6.33-5.61,11.7-9.81,16.11-4.2,4.41-9.33,7.81-15.38,10.22-6.06,2.41-12.8,3.61-20.24,3.61s-14.18-1.21-20.24-3.61-11.19-5.81-15.38-10.22c-4.2-4.4-7.47-9.77-9.81-16.11-2.34-6.33-3.51-13.42-3.51-21.27s1.17-14.94,3.51-21.27c2.34-6.33,5.64-11.7,9.91-16.11,4.27-4.4,9.43-7.81,15.49-10.22,6.06-2.41,12.73-3.61,20.03-3.61s13.97,1.21,20.03,3.61c6.06,2.41,11.22,5.85,15.49,10.32,4.27,4.48,7.57,9.84,9.91,16.11,2.34,6.27,3.51,13.32,3.51,21.17ZM570.64,407.45c-8.26,0-14.8,2.96-19.62,8.88-4.82,5.92-7.23,14.25-7.23,24.99s2.34,19.03,7.02,24.88c4.68,5.85,11.28,8.78,19.82,8.78s15.14-2.92,19.82-8.78c4.68-5.85,7.02-14.15,7.02-24.88s-2.38-18.89-7.12-24.88c-4.75-5.99-11.33-8.98-19.72-8.98Z"/>
  <path class="st3" d="M758.03,411.68c-3.37-2.82-7.95-4.23-13.73-4.23-3.86,0-7.54.72-11.05,2.17-3.51,1.45-6.71,3.41-9.6,5.88.27,1.1.48,2.27.62,3.51.13,1.24.21,2.48.21,3.72v66.49c-.97.41-2.34.79-4.13,1.14-1.79.34-3.65.52-5.57.52-4,0-6.95-.76-8.88-2.27-1.93-1.51-2.89-4.06-2.89-7.64v-55.96c0-6.06-1.72-10.5-5.16-13.32-3.44-2.82-8.06-4.23-13.84-4.23-3.86,0-7.5.62-10.94,1.86-3.44,1.24-6.34,2.62-8.67,4.13v75.78c-.97.41-2.31.79-4.03,1.14-1.72.34-3.61.52-5.68.52-3.99,0-6.95-.76-8.88-2.27-1.93-1.51-2.89-4.06-2.89-7.64v-68.14c0-3.16.62-5.71,1.86-7.64,1.24-1.93,3.3-3.85,6.2-5.78,3.99-2.61,9.01-4.82,15.07-6.61,6.06-1.79,12.18-2.68,18.38-2.68s12.28.9,17.45,2.68c5.16,1.79,9.39,4.41,12.7,7.85,3.85-3.03,8.43-5.54,13.73-7.54,5.3-1.99,11.46-2.99,18.48-2.99,5.37,0,10.39.66,15.08,1.96,4.68,1.31,8.7,3.37,12.08,6.2,3.37,2.82,6.02,6.37,7.95,10.63,1.93,4.27,2.89,9.36,2.89,15.28v65.05c-1.1.41-2.51.79-4.23,1.14-1.72.34-3.61.52-5.68.52-3.99,0-6.95-.76-8.88-2.27-1.93-1.51-2.89-4.06-2.89-7.64v-55.96c0-6.06-1.69-10.5-5.06-13.32Z"/>
  <path class="st3" d="M830,452.26c1.93,7.85,5.68,13.67,11.25,17.45,5.58,3.79,12.7,5.68,21.37,5.68,5.78,0,11.08-.89,15.9-2.68,4.82-1.79,8.67-3.72,11.56-5.78,3.85,2.2,5.78,5.3,5.78,9.29,0,2.34-.9,4.51-2.68,6.5-1.79,2-4.23,3.72-7.33,5.16-3.1,1.45-6.75,2.58-10.95,3.41-4.2.82-8.71,1.24-13.53,1.24-7.99,0-15.25-1.1-21.78-3.3-6.54-2.2-12.15-5.5-16.83-9.91-4.68-4.4-8.3-9.84-10.84-16.31-2.55-6.47-3.82-13.97-3.82-22.51s1.24-15.52,3.72-21.78c2.48-6.26,5.85-11.49,10.12-15.69,4.27-4.2,9.29-7.4,15.07-9.6,5.78-2.2,11.98-3.3,18.58-3.3s12.63,1.07,18.07,3.2c5.44,2.14,10.12,5.09,14.04,8.88,3.92,3.79,6.95,8.3,9.09,13.53,2.13,5.23,3.2,10.94,3.2,17.14,0,3.44-.83,5.96-2.48,7.54-1.65,1.58-4.06,2.65-7.23,3.2l-60.3,8.67ZM855.6,406.83c-7.57,0-13.87,2.55-18.89,7.64-5.02,5.09-7.67,12.39-7.95,21.89l50.8-7.23c-.55-6.19-2.82-11.46-6.81-15.8-3.99-4.34-9.7-6.5-17.14-6.5Z"/>
  <path class="st3" d="M289.99,331.21h78.81v107.01c0,35.61-28.91,64.52-64.52,64.52h-14.29v-171.52h0Z"/>
  <path class="st1" d="M280.29,423.93h9.7v78.81h-50.99v-37.51c0-22.79,18.5-41.29,41.29-41.29Z"/>
  <path class="st3" d="M854.57,342.54c0-3.58,1.24-6.57,3.72-8.98,2.48-2.41,5.64-3.61,9.5-3.61s6.95,1.21,9.29,3.61c2.34,2.41,3.51,5.4,3.51,8.98s-1.17,6.57-3.51,8.98c-2.34,2.41-5.44,3.61-9.29,3.61s-7.02-1.2-9.5-3.61c-2.48-2.41-3.72-5.4-3.72-8.98Z"/>
  <g>
    <path class="st0" d="M289.99,252.4c0-21.76,17.64-39.4,39.4-39.4s39.4,17.64,39.4,39.4h-78.81Z"/>
    <rect class="st2" x="289.99" y="252.4" width="78.81" height="78.81"/>
    <path class="st0" d="M289.99,331.21c-21.76,0-39.4-17.64-39.4-39.4,0-21.76,17.64-39.4,39.4-39.4v78.81Z"/>
  </g>
</svg>